<?xml version="1.0" encoding="iso-8859-1"?>
<!-- Generator: Adobe Illustrator 18.0.0, SVG Export Plug-In . SVG Version: 6.00 Build 0)  -->
<!DOCTYPE svg PUBLIC "-//W3C//DTD SVG 1.1//EN" "http://www.w3.org/Graphics/SVG/1.1/DTD/svg11.dtd">
<svg xmlns="http://www.w3.org/2000/svg" xmlns:xlink="http://www.w3.org/1999/xlink" version="1.1" id="Capa_1" x="0px" y="0px" viewBox="0 0 471.506 471.506" style="enable-background:new 0 0 471.506 471.506;" xml:space="preserve" width="512px" height="512px">
<g>
	<path d="M352.056,235.753l31.896-78.728c0.868-2.142,0.699-4.565-0.456-6.566s-3.169-3.358-5.458-3.678l-84.129-11.742   l-52.233-66.986c-1.421-1.823-3.603-2.888-5.914-2.888s-4.493,1.066-5.914,2.888l-52.233,66.986l-84.129,11.742   c-2.289,0.32-4.303,1.677-5.458,3.678s-1.324,4.424-0.456,6.566l31.896,78.728l-31.896,78.728   c-0.868,2.142-0.699,4.564,0.456,6.566c1.155,2.001,3.169,3.358,5.458,3.678l84.129,11.742l52.233,66.986   c1.421,1.823,3.603,2.888,5.914,2.888s4.493-1.066,5.914-2.888l52.233-66.986l84.129-11.742c2.289-0.32,4.303-1.677,5.458-3.678   c1.155-2.002,1.324-4.424,0.456-6.566L352.056,235.753z M288.827,322.031c-1.93,0.269-3.679,1.279-4.877,2.816l-48.188,61.798   l-48.188-61.798c-1.198-1.537-2.947-2.547-4.877-2.816l-77.612-10.832l29.426-72.63c0.731-1.806,0.731-3.826,0-5.632l-29.426-72.63   l77.612-10.832c1.93-0.269,3.679-1.279,4.877-2.816l48.188-61.797l48.188,61.797c1.198,1.537,2.947,2.547,4.877,2.816   l77.612,10.832l-29.426,72.63c-0.731,1.806-0.731,3.826,0,5.632l29.426,72.63L288.827,322.031z" fill="#FFFFFF"/>
	<path d="M429.958,315.549c-5.24-3.013-11.166-4.192-16.996-3.487l-30.915-76.309l31.367-77.425   c5.53,0.421,11.109-0.833,15.998-3.688c13.153-7.683,17.604-24.636,9.922-37.791c-3.723-6.372-9.703-10.914-16.841-12.788   s-14.578-0.856-20.95,2.865c-5.29,3.089-9.354,7.863-11.629,13.446l-81.01-11.307l-50.811-65.161   c3.419-4.669,5.296-10.326,5.296-16.277C263.39,12.394,250.996,0,235.762,0s-27.628,12.394-27.628,27.628   c0,5.95,1.877,11.607,5.295,16.277l-50.81,65.162l-82.148,11.466c-2.36-5.193-6.292-9.56-11.362-12.475   c-6.397-3.679-13.845-4.645-20.969-2.723c-7.125,1.923-13.074,6.505-16.753,12.902c-3.679,6.397-4.646,13.845-2.724,20.97   c1.923,7.125,6.505,13.074,12.902,16.753c5.239,3.012,11.164,4.191,16.995,3.486l30.916,76.309l-31.368,77.425   c-5.525-0.42-11.109,0.832-15.996,3.688c-13.155,7.683-17.605,24.636-9.923,37.791c3.723,6.372,9.703,10.914,16.841,12.788   c7.136,1.874,14.577,0.856,20.949-2.866c5.289-3.089,9.354-7.862,11.629-13.446l81.011,11.307l50.81,65.162   c-3.418,4.669-5.295,10.326-5.295,16.277c0,15.234,12.394,27.628,27.628,27.628s27.628-12.394,27.628-27.628   c0-5.951-1.877-11.608-5.296-16.277l50.811-65.162l82.147-11.465c2.36,5.192,6.291,9.559,11.362,12.475   c6.396,3.678,13.844,4.646,20.969,2.723c7.125-1.923,13.075-6.505,16.754-12.902C447.731,340.065,443.164,323.142,429.958,315.549z    M427.133,345.794c-1.681,2.924-4.4,5.018-7.657,5.897c-3.255,0.879-6.659,0.437-9.585-1.245c-3.313-1.906-5.562-5.173-6.169-8.964   c-0.646-4.032-4.395-6.808-8.442-6.243l-91.458,12.765c-1.93,0.269-3.679,1.279-4.877,2.816l-56.643,72.641   c-2.537,3.253-1.97,7.945,1.269,10.5c3.063,2.416,4.819,6.031,4.819,9.917c0,6.963-5.665,12.628-12.628,12.628   s-12.628-5.665-12.628-12.628c0-3.886,1.757-7.501,4.818-9.918c3.239-2.555,3.806-7.246,1.269-10.5l-56.642-72.641   c-1.198-1.537-2.947-2.547-4.877-2.816l-90.618-12.647c-0.346-0.048-0.692-0.072-1.037-0.072c-1.666,0-3.296,0.555-4.624,1.595   c-1.602,1.254-2.626,3.106-2.836,5.13c-0.423,4.068-2.672,7.573-6.173,9.617c-2.91,1.701-6.312,2.167-9.575,1.31   c-3.262-0.856-5.995-2.932-7.696-5.845c-3.512-6.013-1.478-13.761,4.535-17.273c3.197-1.868,7.049-2.231,10.563-0.995   c3.782,1.328,7.936-0.547,9.439-4.259l34.84-85.995c0.731-1.806,0.731-3.826,0-5.632l-34.51-85.18   c-0.751-1.854-2.211-3.331-4.057-4.103c-1.846-0.772-3.924-0.775-5.77-0.008c-3.669,1.522-7.729,1.27-11.142-0.692   c-2.924-1.681-5.019-4.401-5.896-7.657c-0.879-3.256-0.437-6.66,1.245-9.584c1.682-2.924,4.4-5.018,7.657-5.897   c3.258-0.878,6.66-0.437,9.584,1.245c3.313,1.905,5.562,5.173,6.17,8.965c0.646,4.031,4.384,6.806,8.442,6.241l91.458-12.765   c1.93-0.269,3.679-1.279,4.877-2.816l56.642-72.641c2.537-3.253,1.971-7.944-1.269-10.5c-3.062-2.417-4.818-6.031-4.818-9.918   c0-6.963,5.665-12.628,12.628-12.628s12.628,5.665,12.628,12.628c0,3.886-1.757,7.501-4.819,9.917   c-3.238,2.555-3.806,7.247-1.269,10.5l56.643,72.641c1.198,1.537,2.947,2.547,4.877,2.816l90.617,12.648   c2.017,0.282,4.059-0.268,5.661-1.523c1.602-1.254,2.625-3.106,2.836-5.13c0.423-4.068,2.672-7.573,6.172-9.617   c2.912-1.701,6.313-2.166,9.576-1.31c3.263,0.857,5.996,2.932,7.697,5.845c3.512,6.012,1.478,13.761-4.534,17.273   c-3.199,1.868-7.05,2.231-10.564,0.995c-3.782-1.328-7.936,0.547-9.439,4.259l-34.839,85.995c-0.731,1.806-0.731,3.826,0,5.632   l34.509,85.18c0.751,1.854,2.211,3.331,4.057,4.103c1.845,0.772,3.923,0.774,5.77,0.008c3.667-1.522,7.73-1.271,11.141,0.691h0.001   C428.517,332.023,430.604,339.758,427.133,345.794z" fill="#FFFFFF"/>
	<path d="M249.352,152.237h-27.18c-16.133,0-29.258,13.125-29.258,29.258v32.5c0,16.133,13.125,29.258,29.258,29.258h18.633v61.016   h-10.086v-42.595c0-4.142-3.357-7.5-7.5-7.5h-22.805c-4.143,0-7.5,3.358-7.5,7.5v28.337c0,16.133,13.125,29.258,29.258,29.258   h27.18c16.133,0,29.258-13.125,29.258-29.258v-32.5c0-16.133-13.125-29.258-29.258-29.258h-18.633v-61.016h10.086v42.595   c0,4.142,3.357,7.5,7.5,7.5h22.805c4.143,0,7.5-3.358,7.5-7.5v-28.337C278.61,165.362,265.485,152.237,249.352,152.237z    M207.914,213.995v-32.5c0-5.541,3.177-10.353,7.805-12.712v57.925C211.091,224.349,207.914,219.536,207.914,213.995z    M207.914,290.011v-20.837h7.805v33.55C211.091,300.365,207.914,295.552,207.914,290.011z M263.61,257.511v32.5   c0,5.541-3.177,10.353-7.805,12.712v-57.925C260.433,247.158,263.61,251.97,263.61,257.511z M263.61,202.332h-7.805v-33.549   c4.628,2.359,7.805,7.171,7.805,12.712V202.332z" fill="#FFFFFF"/>
</g>
<g>
</g>
<g>
</g>
<g>
</g>
<g>
</g>
<g>
</g>
<g>
</g>
<g>
</g>
<g>
</g>
<g>
</g>
<g>
</g>
<g>
</g>
<g>
</g>
<g>
</g>
<g>
</g>
<g>
</g>
</svg>
